<svg width="33" height="33" viewBox="0 0 33 33" fill="none" xmlns="http://www.w3.org/2000/svg">
<path d="M16.5 20.625C18.7782 20.625 20.625 18.7782 20.625 16.5C20.625 14.2218 18.7782 12.375 16.5 12.375C14.2218 12.375 12.375 14.2218 12.375 16.5C12.375 18.7782 14.2218 20.625 16.5 20.625Z" stroke="#BBBBBB" stroke-width="2.0625"/>
<path d="M18.9268 2.959C18.4221 2.75 17.7814 2.75 16.4999 2.75C15.2184 2.75 14.5776 2.75 14.073 2.959C13.7391 3.09721 13.4358 3.29986 13.1803 3.55537C12.9247 3.81088 12.7221 4.11425 12.5839 4.44812C12.4574 4.75475 12.4065 5.11363 12.3873 5.63475C12.3787 6.01149 12.2745 6.37986 12.0845 6.70528C11.8945 7.03071 11.6249 7.30249 11.301 7.49513C10.9722 7.67943 10.602 7.77714 10.2251 7.77906C9.84822 7.78099 9.47702 7.68707 9.14639 7.50613C8.68439 7.26138 8.35026 7.12663 8.01889 7.08263C7.29608 6.98757 6.5651 7.18342 5.98664 7.62712C5.55489 7.96125 5.23314 8.51538 4.59239 9.625C3.95164 10.7346 3.62989 11.2887 3.55976 11.8319C3.51251 12.19 3.53628 12.5539 3.6297 12.9029C3.72313 13.2518 3.88439 13.5789 4.10426 13.8655C4.30776 14.1295 4.59239 14.3509 5.03376 14.6286C5.68414 15.037 6.10214 15.7327 6.10214 16.5C6.10214 17.2673 5.68414 17.963 5.03376 18.37C4.59239 18.6491 4.30639 18.8705 4.10426 19.1345C3.88439 19.4211 3.72313 19.7482 3.6297 20.0971C3.53628 20.4461 3.51251 20.81 3.55976 21.1681C3.63126 21.7099 3.95164 22.2654 4.59101 23.375C5.23314 24.4846 5.55351 25.0387 5.98664 25.3729C6.27324 25.5927 6.60035 25.754 6.94928 25.8474C7.29822 25.9409 7.66214 25.9646 8.02026 25.9174C8.35026 25.8734 8.68439 25.7386 9.14639 25.4939C9.47702 25.3129 9.84822 25.219 10.2251 25.2209C10.602 25.2229 10.9722 25.3206 11.301 25.5049C11.9651 25.8899 12.3598 26.598 12.3873 27.3653C12.4065 27.8878 12.456 28.2452 12.5839 28.5519C12.7221 28.8858 12.9247 29.1891 13.1803 29.4446C13.4358 29.7001 13.7391 29.9028 14.073 30.041C14.5776 30.25 15.2184 30.25 16.4999 30.25C17.7814 30.25 18.4221 30.25 18.9268 30.041C19.2606 29.9028 19.564 29.7001 19.8195 29.4446C20.075 29.1891 20.2777 28.8858 20.4159 28.5519C20.5424 28.2452 20.5933 27.8878 20.6125 27.3653C20.64 26.598 21.0346 25.8885 21.6988 25.5049C22.0275 25.3206 22.3978 25.2229 22.7747 25.2209C23.1516 25.219 23.5228 25.3129 23.8534 25.4939C24.3154 25.7386 24.6495 25.8734 24.9795 25.9174C25.3376 25.9646 25.7016 25.9409 26.0505 25.8474C26.3994 25.754 26.7265 25.5927 27.0131 25.3729C27.4463 25.0401 27.7666 24.4846 28.4074 23.375C29.0481 22.2654 29.3699 21.7113 29.44 21.1681C29.4873 20.81 29.4635 20.4461 29.3701 20.0971C29.2766 19.7482 29.1154 19.4211 28.8955 19.1345C28.692 18.8705 28.4074 18.6491 27.966 18.3714C27.6439 18.1756 27.3768 17.9011 27.19 17.5738C27.0031 17.2464 26.9025 16.8769 26.8976 16.5C26.8976 15.7327 27.3156 15.037 27.966 14.63C28.4074 14.3509 28.6934 14.1295 28.8955 13.8655C29.1154 13.5789 29.2766 13.2518 29.3701 12.9029C29.4635 12.5539 29.4873 12.19 29.44 11.8319C29.3685 11.2901 29.0481 10.7346 28.4088 9.625C27.7666 8.51538 27.4463 7.96125 27.0131 7.62712C26.7265 7.40725 26.3994 7.24599 26.0505 7.15257C25.7016 7.05914 25.3376 7.03537 24.9795 7.08263C24.6495 7.12663 24.3154 7.26138 23.852 7.50613C23.5215 7.68682 23.1506 7.78061 22.774 7.77868C22.3973 7.77676 22.0274 7.67919 21.6988 7.49513C21.3749 7.30249 21.1053 7.03071 20.9153 6.70528C20.7253 6.37986 20.6211 6.01149 20.6125 5.63475C20.5933 5.11225 20.5438 4.75475 20.4159 4.44812C20.2777 4.11425 20.075 3.81088 19.8195 3.55537C19.564 3.29986 19.2606 3.09721 18.9268 2.959Z" stroke="#BBBBBB" stroke-width="2.7"/>
</svg>
