<svg width="33" height="33" viewBox="0 0 33 33" fill="none" xmlns="http://www.w3.org/2000/svg">
<path d="M4.125 0V4.125H0V6.875H4.125V11H6.875V6.875H11V4.125H6.875V0H4.125ZM13.75 4.125V6.875H26.125V9.625H17.875C16.3625 9.625 15.125 10.8625 15.125 12.375V20.625C15.125 22.1375 16.3625 23.375 17.875 23.375H26.125V26.125H6.875V13.75H4.125V26.125C4.125 26.8543 4.41473 27.5538 4.93046 28.0695C5.44618 28.5853 6.14565 28.875 6.875 28.875H26.125C27.6375 28.875 28.875 27.6375 28.875 26.125V22.99C29.2906 22.75 29.6362 22.4055 29.8774 21.9906C30.1187 21.5757 30.2471 21.1049 30.25 20.625V12.375C30.2471 11.8951 30.1187 11.4243 29.8774 11.0094C29.6362 10.5945 29.2906 10.25 28.875 10.01V6.875C28.875 5.3625 27.6375 4.125 26.125 4.125H13.75ZM17.875 12.375H27.5V20.625H17.875V12.375ZM22 14.4375C21.453 14.4375 20.9284 14.6548 20.5416 15.0416C20.1548 15.4284 19.9375 15.953 19.9375 16.5C19.9375 17.047 20.1548 17.5716 20.5416 17.9584C20.9284 18.3452 21.453 18.5625 22 18.5625C22.547 18.5625 23.0716 18.3452 23.4584 17.9584C23.8452 17.5716 24.0625 17.047 24.0625 16.5C24.0625 15.953 23.8452 15.4284 23.4584 15.0416C23.0716 14.6548 22.547 14.4375 22 14.4375Z" fill="#BBBBBB"/>
</svg>
