<svg width="33" height="33" viewBox="0 0 33 33" fill="currentColor" xmlns="http://www.w3.org/2000/svg">
   <path
      d="M4.425 2.0625V1.7625H4.125H2.0625H1.7625V2.0625V28.875C1.7625 29.5016 2.01141 30.1025 2.45446 30.5455C2.89751 30.9886 3.49843 31.2375 4.125 31.2375H30.9375H31.2375V30.9375V28.875V28.575H30.9375H4.425V2.0625Z"
      fill="#BBBBBB" stroke="#BBBBBB" stroke-width="0.6" />
   <path
      d="M31.2375 9.28125V8.98125H30.9375H23.7188H23.4188V9.28125V11.3438V11.6437H23.7188H26.6967L19.594 18.7464L15.3827 14.5253C15.3826 14.5252 15.3825 14.5251 15.3823 14.525C15.2587 14.4003 15.1115 14.3014 14.9495 14.2339C14.7872 14.1663 14.6132 14.1315 14.4375 14.1315C14.2618 14.1315 14.0878 14.1663 13.9255 14.2339C13.7635 14.3014 13.6164 14.4003 13.4927 14.5249C13.4926 14.5251 13.4924 14.5252 13.4923 14.5253L5.97522 22.0527L5.76338 22.2648L5.97537 22.4768L7.42943 23.9309L7.64156 24.143L7.85369 23.9309L14.4373 17.3473L18.6486 21.5684C18.6487 21.5686 18.6489 21.5687 18.649 21.5689C18.7727 21.6935 18.9197 21.7923 19.0818 21.8598C19.244 21.9274 19.418 21.9622 19.5938 21.9622C19.7695 21.9622 19.9435 21.9274 20.1057 21.8598C20.2678 21.7923 20.4148 21.6935 20.5385 21.5689C20.5386 21.5687 20.5388 21.5686 20.5389 21.5684L28.575 13.5227V16.5V16.8H28.875H30.9375H31.2375V16.5V9.28125Z"
      fill="#BBBBBB" stroke="#BBBBBB" stroke-width="0.6" />
</svg>