<svg width="33" height="33" viewBox="0 0 33 33" fill="currentColor"  xmlns="http://www.w3.org/2000/svg">
<path d="M8.24995 13.75V17.875C8.24994 18.0889 8.20003 18.2998 8.1042 18.491L6.35245 22H26.653L24.8985 18.491C24.8017 18.3 24.7508 18.0891 24.75 17.875V13.75C24.75 11.562 23.8808 9.46354 22.3336 7.91637C20.7864 6.36919 18.688 5.5 16.5 5.5C14.3119 5.5 12.2135 6.36919 10.6663 7.91637C9.11915 9.46354 8.24995 11.562 8.24995 13.75ZM11 24.75H4.12495C3.89048 24.75 3.6599 24.69 3.45513 24.5758C3.25036 24.4616 3.07821 24.2969 2.95503 24.0973C2.83184 23.8978 2.76173 23.6701 2.75135 23.4359C2.74097 23.2016 2.79066 22.9686 2.8957 22.759L5.49995 17.5505V13.75C5.49995 10.8326 6.65888 8.03473 8.72178 5.97183C10.7847 3.90893 13.5826 2.75 16.5 2.75C19.4173 2.75 22.2152 3.90893 24.2781 5.97183C26.341 8.03473 27.5 10.8326 27.5 13.75V17.5505L30.1042 22.759C30.2092 22.9686 30.2589 23.2016 30.2486 23.4359C30.2382 23.6701 30.1681 23.8978 30.0449 24.0973C29.9217 24.2969 29.7495 24.4616 29.5448 24.5758C29.34 24.69 29.1094 24.75 28.875 24.75H22C22 26.2087 21.4205 27.6076 20.389 28.6391C19.3576 29.6705 17.9586 30.25 16.5 30.25C15.0413 30.25 13.6423 29.6705 12.6109 28.6391C11.5794 27.6076 11 26.2087 11 24.75ZM19.25 24.75H13.75C13.75 25.4793 14.0397 26.1788 14.5554 26.6945C15.0711 27.2103 15.7706 27.5 16.5 27.5C17.2293 27.5 17.9288 27.2103 18.4445 26.6945C18.9602 26.1788 19.25 25.4793 19.25 24.75Z" fill="#BBBBBB"/>
</svg>
