<svg width="33" height="33" viewBox="0 0 33 33" fill="currentColor"  xmlns="http://www.w3.org/2000/svg">
<path d="M16.5 9.73108V16.5002L20.7308 20.7309" stroke="#BBBBBB" stroke-width="4.3" stroke-linecap="round" stroke-linejoin="round"/>
<path d="M3.53354 7.82048L2.26431 7.82556C2.26564 8.16012 2.39902 8.48063 2.63544 8.71737C2.87187 8.9541 3.1922 9.08791 3.52677 9.08969L3.53354 7.82048ZM7.83538 9.11C8.00206 9.11078 8.16726 9.07872 8.32154 9.01565C8.47583 8.95259 8.61619 8.85975 8.7346 8.74244C8.85301 8.62514 8.94715 8.48566 9.01165 8.33197C9.07616 8.17828 9.10976 8.01338 9.11053 7.84671C9.11131 7.68003 9.07925 7.51484 9.01619 7.36055C8.95312 7.20626 8.86028 7.06591 8.74297 6.9475C8.62566 6.8291 8.48618 6.73495 8.33249 6.67045C8.1788 6.60595 8.0139 6.57235 7.84723 6.57157L7.83538 9.11ZM4.78077 3.50515C4.77897 3.16853 4.64353 2.84642 4.40423 2.60966C4.16494 2.37291 3.84139 2.24091 3.50477 2.2427C3.16815 2.2445 2.84603 2.37994 2.60927 2.61923C2.37251 2.85853 2.24051 3.18207 2.24231 3.51869L4.78077 3.50515ZM2.53846 16.5002C2.53846 16.1636 2.40474 15.8408 2.16671 15.6027C1.92868 15.3647 1.60585 15.231 1.26923 15.231C0.932609 15.231 0.609776 15.3647 0.371749 15.6027C0.133722 15.8408 0 16.1636 0 16.5002H2.53846ZM24.75 30.7916C24.9004 30.7115 25.0331 30.6019 25.1402 30.4695C25.2474 30.337 25.3268 30.1843 25.3736 30.0205C25.4205 29.8567 25.434 29.6852 25.4131 29.5161C25.3923 29.347 25.3376 29.1838 25.2524 29.0363C25.1671 28.8888 25.0531 28.7599 24.917 28.6574C24.7809 28.5549 24.6255 28.4809 24.4602 28.4397C24.2949 28.3985 24.123 28.3911 23.9547 28.4177C23.7864 28.4444 23.6252 28.5047 23.4808 28.595L24.75 30.7916ZM28.5949 23.4809C28.5046 23.6254 28.4443 23.7866 28.4177 23.9548C28.391 24.1231 28.3985 24.295 28.4396 24.4603C28.4808 24.6257 28.5549 24.781 28.6574 24.9171C28.7599 25.0532 28.8887 25.1673 29.0362 25.2525C29.1838 25.3377 29.3469 25.3924 29.516 25.4132C29.6851 25.4341 29.8567 25.4206 30.0205 25.3738C30.1843 25.3269 30.337 25.2475 30.4694 25.1404C30.6019 25.0332 30.7114 24.9005 30.7915 24.7501L28.5949 23.4809ZM4.89077 4.77267C4.65154 5.00965 4.51625 5.33195 4.51467 5.66868C4.51308 6.0054 4.64532 6.32896 4.88231 6.56819C5.11929 6.80741 5.44159 6.94269 5.77832 6.94428C6.11505 6.94587 6.43862 6.81363 6.67784 6.57665L4.89077 4.77267ZM28.1126 4.88605C21.648 -1.57848 11.2014 -1.64279 4.77907 4.77944L6.57292 6.57157C11.9883 1.15795 20.8272 1.1901 26.3188 6.68157L28.1126 4.88605ZM4.77907 4.77944L2.63661 6.92187L4.43046 8.7157L6.57461 6.57496L4.77907 4.77944ZM3.52677 9.08969L7.83538 9.11L7.84723 6.57157L3.54031 6.55126L3.52677 9.08969ZM4.80277 7.81371L4.78077 3.50515L2.24231 3.51869L2.26431 7.82556L4.80277 7.81371ZM16.5 2.53885C20.2028 2.53885 23.754 4.00978 26.3723 6.62804C28.9906 9.2463 30.4615 12.7974 30.4615 16.5002H33C33 12.1242 31.2616 7.92741 28.1672 4.8331C25.0729 1.73879 20.8761 0.000424175 16.5 0.000424175V2.53885ZM16.5 30.4616C12.7972 30.4616 9.24599 28.9906 6.6277 26.3724C4.0094 23.7541 2.53846 20.203 2.53846 16.5002H0C0 20.8762 1.73839 25.073 4.83274 28.1673C7.92708 31.2616 12.1239 33 16.5 33V30.4616ZM23.4808 28.595C21.3592 29.822 18.9508 30.466 16.5 30.4616V33C19.5038 33 22.3215 32.1962 24.75 30.7916L23.4808 28.595ZM30.4615 16.5002C30.466 18.951 29.822 21.3594 28.5949 23.4809L30.7915 24.7501C32.2421 22.2429 33.004 19.3968 33 16.5002H30.4615ZM6.67784 6.57665C9.28892 3.98432 12.8206 2.53356 16.5 2.53885V0.000424175C12.1514 -0.00517748 7.97743 1.70954 4.89077 4.77267L6.67784 6.57665Z" fill="#BBBBBB"/>
</svg>
