<svg width="33" height="33" viewBox="0 0 33 33" fill="currentColor"  xmlns="http://www.w3.org/2000/svg">
<path d="M26.8125 9.28125H6.1875C4.47887 9.28125 3.09375 10.6664 3.09375 12.375V24.75C3.09375 26.4586 4.47887 27.8438 6.1875 27.8438H26.8125C28.5211 27.8438 29.9062 26.4586 29.9062 24.75V12.375C29.9062 10.6664 28.5211 9.28125 26.8125 9.28125Z" stroke="#BBBBBB" stroke-width="3.125" stroke-linejoin="round"/>
<path d="M26.5134 9.28119V7.3476C26.5133 6.87335 26.4085 6.40499 26.2065 5.97592C26.0045 5.54686 25.7102 5.16766 25.3448 4.86539C24.9794 4.56312 24.5517 4.34523 24.0924 4.22727C23.6331 4.1093 23.1534 4.09417 22.6875 4.18295L5.71313 7.08012C4.97599 7.22059 4.31098 7.6139 3.8328 8.19222C3.35462 8.77053 3.09324 9.49758 3.09375 10.248V13.4062" stroke="#BBBBBB" stroke-width="3.125" stroke-linejoin="round"/>
<path d="M23.7188 20.625C23.3108 20.625 22.9121 20.504 22.5729 20.2774C22.2337 20.0508 21.9694 19.7287 21.8132 19.3518C21.6571 18.9749 21.6163 18.5602 21.6959 18.1601C21.7755 17.76 21.9719 17.3925 22.2603 17.1041C22.5488 16.8156 22.9163 16.6192 23.3164 16.5396C23.7165 16.46 24.1312 16.5009 24.508 16.657C24.8849 16.8131 25.207 17.0775 25.4337 17.4166C25.6603 17.7558 25.7813 18.1546 25.7813 18.5625C25.7813 19.1095 25.564 19.6341 25.1772 20.0209C24.7904 20.4077 24.2658 20.625 23.7188 20.625Z" fill="#BBBBBB"/>
</svg>
