<svg width="33" height="33" viewBox="0 0 33 33" fill="none" xmlns="http://www.w3.org/2000/svg">
<path d="M4.4248 1.7627V28.5752H31.2373V31.2373H4.125C3.49843 31.2373 2.89716 30.989 2.4541 30.5459C2.01105 30.1028 1.7627 29.5016 1.7627 28.875V1.7627H4.4248Z" fill="#BBBBBB" stroke="#BBBBBB" stroke-width="0.6"/>
<path d="M31.2373 8.98145V16.7998H28.5752V13.5215L20.5381 21.5674L20.5391 21.5684C20.4153 21.6931 20.2677 21.7918 20.1055 21.8594C19.9433 21.9269 19.7695 21.9619 19.5938 21.9619C19.418 21.9619 19.2442 21.9269 19.082 21.8594C18.9198 21.7918 18.7722 21.6931 18.6484 21.5684L14.4365 17.3467L7.85352 23.9307L7.6416 24.1426L5.76367 22.2646L5.97559 22.0527L13.4932 14.5244C13.6167 14.4 13.7639 14.3018 13.9258 14.2344C14.088 14.1668 14.2618 14.1318 14.4375 14.1318C14.6132 14.1318 14.787 14.1668 14.9492 14.2344C15.1111 14.3018 15.2583 14.4 15.3818 14.5244L19.5938 18.7461L26.6973 11.6436H23.4189V8.98145H31.2373Z" fill="#BBBBBB" stroke="#BBBBBB" stroke-width="0.6"/>
</svg>
