<svg width="33" height="33" viewBox="0 0 33 33" fill="none" xmlns="http://www.w3.org/2000/svg">
<path d="M6.875 28.875C6.11875 28.875 5.47158 28.606 4.9335 28.0679C4.39542 27.5298 4.12592 26.8822 4.125 26.125V6.875C4.125 6.11875 4.3945 5.47158 4.9335 4.9335C5.4725 4.39542 6.11967 4.12592 6.875 4.125H26.125C26.8813 4.125 27.5289 4.3945 28.0679 4.9335C28.6069 5.4725 28.8759 6.11967 28.875 6.875V10.3125H26.125V6.875H6.875V26.125H26.125V22.6875H28.875V26.125C28.875 26.8813 28.606 27.5289 28.0679 28.0679C27.5298 28.6069 26.8822 28.8759 26.125 28.875H6.875ZM17.875 23.375C17.1187 23.375 16.4716 23.106 15.9335 22.5679C15.3954 22.0298 15.1259 21.3822 15.125 20.625V12.375C15.125 11.6188 15.3945 10.9716 15.9335 10.4335C16.4725 9.89542 17.1197 9.62592 17.875 9.625H27.5C28.2563 9.625 28.9039 9.8945 29.4429 10.4335C29.9819 10.9725 30.2509 11.6197 30.25 12.375V20.625C30.25 21.3813 29.981 22.0289 29.4429 22.5679C28.9048 23.1069 28.2572 23.3759 27.5 23.375H17.875ZM27.5 20.625V12.375H17.875V20.625H27.5ZM22 18.5625C22.5729 18.5625 23.0601 18.3622 23.4616 17.9616C23.8631 17.561 24.0634 17.0738 24.0625 16.5C24.0616 15.9262 23.8613 15.4394 23.4616 15.0397C23.062 14.6401 22.5748 14.4393 22 14.4375C21.4252 14.4357 20.9385 14.6364 20.5397 15.0397C20.141 15.4431 19.9403 15.9298 19.9375 16.5C19.9347 17.0702 20.1355 17.5574 20.5397 17.9616C20.944 18.3659 21.4307 18.5662 22 18.5625Z" fill="#BBBBBB"/>
</svg>
