<svg width="33" height="33" viewBox="0 0 33 33" fill="none" xmlns="http://www.w3.org/2000/svg">
<path d="M18.6257 17.5944L13.4694 22.7507C13.1788 23.0413 12.7847 23.2045 12.3737 23.2045C11.9627 23.2045 11.5686 23.0413 11.278 22.7507C10.9874 22.4601 10.8242 22.0659 10.8242 21.655C10.8242 21.244 10.9874 20.8499 11.278 20.5593L13.793 18.0469H3.09375C2.68349 18.0469 2.29004 17.8839 1.99994 17.5938C1.70985 17.3037 1.54688 16.9103 1.54688 16.5C1.54688 16.0897 1.70985 15.6963 1.99994 15.4062C2.29004 15.1161 2.68349 14.9531 3.09375 14.9531H13.793L11.2806 12.4382C11.1367 12.2943 11.0226 12.1235 10.9447 11.9355C10.8668 11.7474 10.8267 11.546 10.8267 11.3425C10.8267 10.9315 10.99 10.5374 11.2806 10.2468C11.5712 9.95616 11.9653 9.7929 12.3763 9.7929C12.7873 9.7929 13.1814 9.95616 13.472 10.2468L18.6282 15.403C18.7723 15.5469 18.8865 15.7178 18.9644 15.9059C19.0422 16.094 19.0822 16.2957 19.0819 16.4992C19.0817 16.7028 19.0413 16.9044 18.963 17.0923C18.8847 17.2802 18.77 17.4509 18.6257 17.5944ZM25.7812 3.60938H17.5312C17.121 3.60938 16.7275 3.77235 16.4374 4.06244C16.1473 4.35254 15.9844 4.74599 15.9844 5.15625C15.9844 5.56651 16.1473 5.95996 16.4374 6.25006C16.7275 6.54015 17.121 6.70312 17.5312 6.70312H24.2344V26.2969H17.5312C17.121 26.2969 16.7275 26.4599 16.4374 26.7499C16.1473 27.04 15.9844 27.4335 15.9844 27.8438C15.9844 28.254 16.1473 28.6475 16.4374 28.9376C16.7275 29.2276 17.121 29.3906 17.5312 29.3906H25.7812C26.1915 29.3906 26.585 29.2276 26.8751 28.9376C27.1651 28.6475 27.3281 28.254 27.3281 27.8438V5.15625C27.3281 4.74599 27.1651 4.35254 26.8751 4.06244C26.585 3.77235 26.1915 3.60938 25.7812 3.60938Z" fill="#BBBBBB"/>
</svg>
