<svg width="39" height="39" viewBox="0 0 39 39" fill="none" xmlns="http://www.w3.org/2000/svg">
<path d="M36 33.9048V16.0952C36 15.77 35.9254 15.4492 35.7823 15.1582C35.6391 14.8673 35.4312 14.6142 35.175 14.419L20.7375 3.41905C20.3805 3.14704 19.9463 3 19.5 3C19.0537 3 18.6195 3.14704 18.2625 3.41905L3.825 14.419C3.56885 14.6142 3.36094 14.8673 3.21774 15.1582C3.07455 15.4492 3 15.77 3 16.0952V33.9048C3 34.4605 3.2173 34.9934 3.60409 35.3863C3.99089 35.7793 4.51549 36 5.0625 36H13.3125C13.8595 36 14.3841 35.7793 14.7709 35.3863C15.1577 34.9934 15.375 34.4605 15.375 33.9048V27.619C15.375 27.0634 15.5923 26.5304 15.9791 26.1375C16.3659 25.7446 16.8905 25.5238 17.4375 25.5238H21.5625C22.1095 25.5238 22.6341 25.7446 23.0209 26.1375C23.4077 26.5304 23.625 27.0634 23.625 27.619V33.9048C23.625 34.4605 23.8423 34.9934 24.2291 35.3863C24.6159 35.7793 25.1405 36 25.6875 36H33.9375C34.4845 36 35.0091 35.7793 35.3959 35.3863C35.7827 34.9934 36 34.4605 36 33.9048Z" stroke="#277B9A" stroke-width="4.16667" stroke-linecap="round" stroke-linejoin="round"/>
</svg>
