<svg width="33" height="33" viewBox="0 0 33 33" fill="none" xmlns="http://www.w3.org/2000/svg">
<path d="M16.5 30.25C18.306 30.2524 20.0947 29.8978 21.7632 29.2066C23.4318 28.5154 24.9473 27.5014 26.2226 26.2226C27.5014 24.9473 28.5154 23.4318 29.2066 21.7632C29.8978 20.0947 30.2524 18.306 30.25 16.5C30.2523 14.694 29.8977 12.9053 29.2065 11.2368C28.5154 9.56827 27.5013 8.05277 26.2226 6.77739C24.9473 5.49866 23.4318 4.48457 21.7632 3.79342C20.0947 3.10227 18.306 2.74767 16.5 2.75001C14.694 2.74771 12.9053 3.10232 11.2368 3.79347C9.56827 4.48462 8.05277 5.49869 6.77739 6.77739C5.49869 8.05277 4.48462 9.56827 3.79347 11.2368C3.10232 12.9053 2.74771 14.694 2.75001 16.5C2.74767 18.306 3.10227 20.0947 3.79342 21.7632C4.48457 23.4318 5.49866 24.9473 6.77739 26.2226C8.05277 27.5013 9.56827 28.5154 11.2368 29.2065C12.9053 29.8977 14.694 30.2523 16.5 30.25Z" stroke="#BBBBBB" stroke-width="2.75" stroke-linejoin="round"/>
<path d="M16.5 19.6797V16.9297C17.3158 16.9297 18.1134 16.6878 18.7917 16.2345C19.4701 15.7812 19.9988 15.137 20.311 14.3833C20.6232 13.6295 20.7049 12.8001 20.5457 11.9999C20.3866 11.1998 19.9937 10.4648 19.4168 9.88787C18.8399 9.31098 18.1049 8.91811 17.3047 8.75895C16.5046 8.59979 15.6752 8.68147 14.9214 8.99369C14.1677 9.3059 13.5234 9.83461 13.0702 10.513C12.6169 11.1913 12.375 11.9888 12.375 12.8047" stroke="#BBBBBB" stroke-width="2.75" stroke-linecap="round" stroke-linejoin="round"/>
<path fill-rule="evenodd" clip-rule="evenodd" d="M16.5 25.8672C16.9558 25.8672 17.393 25.6861 17.7153 25.3638C18.0377 25.0415 18.2188 24.6043 18.2188 24.1484C18.2188 23.6926 18.0377 23.2554 17.7153 22.9331C17.393 22.6108 16.9558 22.4297 16.5 22.4297C16.0442 22.4297 15.607 22.6108 15.2847 22.9331C14.9623 23.2554 14.7812 23.6926 14.7812 24.1484C14.7812 24.6043 14.9623 25.0415 15.2847 25.3638C15.607 25.6861 16.0442 25.8672 16.5 25.8672Z" fill="#BBBBBB"/>
</svg>
