<svg width="17" height="18" viewBox="0 0 17 18" fill="none" xmlns="http://www.w3.org/2000/svg">
<path fill-rule="evenodd" clip-rule="evenodd" d="M6.72933 3.75C6.72933 4.57841 6.09505 5.25 5.31266 5.25C4.53027 5.25 3.896 4.57841 3.896 3.75C3.896 2.92157 4.53027 2.25 5.31266 2.25C6.09505 2.25 6.72933 2.92157 6.72933 3.75ZM5.31266 10.5C6.09505 10.5 6.72933 9.82841 6.72933 9C6.72933 8.17159 6.09505 7.5 5.31266 7.5C4.53027 7.5 3.896 8.17159 3.896 9C3.896 9.82841 4.53027 10.5 5.31266 10.5ZM5.31266 15.75C6.09505 15.75 6.72933 15.0784 6.72933 14.25C6.72933 13.4216 6.09505 12.75 5.31266 12.75C4.53027 12.75 3.896 13.4216 3.896 14.25C3.896 15.0784 4.53027 15.75 5.31266 15.75Z" fill="black"/>
<path fill-rule="evenodd" clip-rule="evenodd" d="M13.1043 3.75C13.1043 4.57841 12.4701 5.25 11.6877 5.25C10.9053 5.25 10.271 4.57841 10.271 3.75C10.271 2.92157 10.9053 2.25 11.6877 2.25C12.4701 2.25 13.1043 2.92157 13.1043 3.75ZM11.6877 10.5C12.4701 10.5 13.1043 9.82841 13.1043 9C13.1043 8.17159 12.4701 7.5 11.6877 7.5C10.9053 7.5 10.271 8.17159 10.271 9C10.271 9.82841 10.9053 10.5 11.6877 10.5ZM11.6877 15.75C12.4701 15.75 13.1043 15.0784 13.1043 14.25C13.1043 13.4216 12.4701 12.75 11.6877 12.75C10.9053 12.75 10.271 13.4216 10.271 14.25C10.271 15.0784 10.9053 15.75 11.6877 15.75Z" fill="black"/>
</svg>
